<svg xmlns="http://www.w3.org/2000/svg" width="1440" height="810" viewBox="0 0 1440 810" role="img" aria-labelledby="title desc">
  <title id="title">Statistics and Visualization</title>
  <desc id="desc">Historical election analytics and animated chart view.</desc>
  <rect width="1440" height="810" fill="#f8fafc"/>
  <rect x="48" y="36" width="1344" height="84" rx="18" fill="#1e293b"/>
  <text x="84" y="88" font-size="36" font-family="Arial, sans-serif" fill="#ffffff" font-weight="700">Tamil Nadu Election Statistics &amp; Visualization</text>
  <rect x="48" y="148" width="870" height="602" rx="20" fill="#ffffff" stroke="#cbd5e1"/>
  <text x="84" y="198" font-size="28" font-family="Arial, sans-serif" fill="#0f766e" font-weight="700">Historic Vote Share Trend</text>
  <polyline points="100,620 230,560 360,530 490,460 620,430 750,380 880,340" fill="none" stroke="#0ea5e9" stroke-width="8"/>
  <circle cx="100" cy="620" r="7" fill="#0284c7"/>
  <circle cx="230" cy="560" r="7" fill="#0284c7"/>
  <circle cx="360" cy="530" r="7" fill="#0284c7"/>
  <circle cx="490" cy="460" r="7" fill="#0284c7"/>
  <circle cx="620" cy="430" r="7" fill="#0284c7"/>
  <circle cx="750" cy="380" r="7" fill="#0284c7"/>
  <circle cx="880" cy="340" r="7" fill="#0284c7"/>
  <rect x="948" y="148" width="444" height="286" rx="20" fill="#ffffff" stroke="#bbf7d0"/>
  <text x="982" y="198" font-size="28" font-family="Arial, sans-serif" fill="#15803d" font-weight="700">Snapshot Stats</text>
  <text x="982" y="248" font-size="20" font-family="Arial, sans-serif" fill="#334155">Total Seats: 234</text>
  <text x="982" y="282" font-size="20" font-family="Arial, sans-serif" fill="#334155">Avg Turnout (3 cycles): 73.6%</text>
  <text x="982" y="316" font-size="20" font-family="Arial, sans-serif" fill="#334155">Swing Seats: 41</text>
  <rect x="948" y="464" width="444" height="286" rx="20" fill="#ffffff" stroke="#fde68a"/>
  <text x="982" y="514" font-size="28" font-family="Arial, sans-serif" fill="#92400e" font-weight="700">Poll of Polls</text>
  <text x="982" y="560" font-size="20" font-family="Arial, sans-serif" fill="#334155">DMK+: 132</text>
  <text x="982" y="594" font-size="20" font-family="Arial, sans-serif" fill="#334155">AIADMK+: 76</text>
  <text x="982" y="628" font-size="20" font-family="Arial, sans-serif" fill="#334155">Others: 26</text>
</svg>
