<svg xmlns="http://www.w3.org/2000/svg" width="1440" height="810" viewBox="0 0 1440 810" role="img" aria-labelledby="title desc">
  <title id="title">Strategy Lab</title>
  <desc id="desc">Multi-parameter strategy simulation mock screenshot.</desc>
  <rect width="1440" height="810" fill="#f8fafc"/>
  <rect x="48" y="36" width="1344" height="84" rx="18" fill="#0f172a"/>
  <text x="84" y="88" font-size="36" font-family="Arial, sans-serif" fill="#ffffff" font-weight="700">Strategy Lab · Scenario Simulator</text>
  <rect x="48" y="148" width="640" height="602" rx="20" fill="#ffffff" stroke="#dbeafe"/>
  <text x="84" y="198" font-size="28" font-family="Arial, sans-serif" fill="#1e3a8a" font-weight="700">Multi-point sliders</text>
  <g font-family="Arial, sans-serif" font-size="20" fill="#334155">
    <text x="84" y="252">Alliance Transfer Efficiency</text>
    <rect x="84" y="268" width="500" height="10" rx="5" fill="#e2e8f0"/>
    <rect x="84" y="268" width="340" height="10" rx="5" fill="#2563eb"/>
    <text x="84" y="320">Anti-incumbency Pressure</text>
    <rect x="84" y="336" width="500" height="10" rx="5" fill="#e2e8f0"/>
    <rect x="84" y="336" width="225" height="10" rx="5" fill="#ef4444"/>
    <text x="84" y="388">Caste Cluster Swing</text>
    <rect x="84" y="404" width="500" height="10" rx="5" fill="#e2e8f0"/>
    <rect x="84" y="404" width="275" height="10" rx="5" fill="#16a34a"/>
  </g>
  <rect x="724" y="148" width="668" height="286" rx="20" fill="#ffffff" stroke="#fde68a"/>
  <text x="760" y="198" font-size="28" font-family="Arial, sans-serif" fill="#92400e" font-weight="700">Scenario outputs</text>
  <text x="760" y="246" font-size="22" font-family="Arial, sans-serif" fill="#334155">DMK+: 128–146 seats (80% CI)</text>
  <text x="760" y="284" font-size="22" font-family="Arial, sans-serif" fill="#334155">AIADMK+: 62–84 seats</text>
  <text x="760" y="322" font-size="22" font-family="Arial, sans-serif" fill="#334155">TVK: 4–12 seats · NTK: 0–5 seats</text>
  <rect x="724" y="464" width="668" height="286" rx="20" fill="#ffffff" stroke="#bfdbfe"/>
  <text x="760" y="514" font-size="28" font-family="Arial, sans-serif" fill="#1e40af" font-weight="700">Preset strategies</text>
  <text x="760" y="560" font-size="21" font-family="Arial, sans-serif" fill="#334155">• Welfare Surge</text>
  <text x="760" y="594" font-size="21" font-family="Arial, sans-serif" fill="#334155">• Urban Youth Consolidation</text>
  <text x="760" y="628" font-size="21" font-family="Arial, sans-serif" fill="#334155">• Anti-incumbency Spike</text>
</svg>
